<?xml version="1.0" standalone="no"?>
<!DOCTYPE svg PUBLIC "-//W3C//DTD SVG 20010904//EN"
 "http://www.w3.org/TR/2001/REC-SVG-20010904/DTD/svg10.dtd">
<svg version="1.0" xmlns="http://www.w3.org/2000/svg"
 width="420.000000pt" height="420.000000pt" viewBox="0 0 420.000000 420.000000"
 preserveAspectRatio="xMidYMid meet">

<g transform="translate(0.000000,420.000000) scale(0.100000,-0.100000)"
fill="#000000" stroke="none">
<path d="M2388 3609 c-10 -5 -18 -7 -18 -3 0 3 -7 1 -15 -6 -8 -7 -15 -10 -15
-6 0 4 -14 -1 -30 -9 -26 -14 -42 -14 -118 -4 -169 23 -383 -4 -534 -67 -35
-14 -88 -32 -118 -40 -206 -55 -334 -186 -375 -381 -8 -40 -25 -99 -39 -130
-43 -106 -70 -197 -91 -313 l-20 -115 -61 0 c-68 0 -98 -15 -139 -69 -61 -80
-50 -274 26 -465 20 -49 26 -77 19 -79 -31 -11 -98 -73 -120 -112 -19 -35 -24
-58 -22 -105 2 -66 29 -156 66 -219 79 -134 278 -248 406 -233 l47 6 17 -57
c30 -97 125 -268 194 -348 77 -91 121 -124 237 -180 230 -109 423 -136 641
-90 73 16 196 56 235 77 51 26 171 133 215 190 67 87 150 233 174 304 19 57
24 63 52 67 18 3 53 -4 87 -18 74 -31 161 -32 216 -3 60 32 93 67 128 138 27
56 32 77 35 162 7 159 -36 265 -170 425 l-63 75 -7 -57 c-4 -31 -19 -99 -33
-150 -45 -164 -84 -234 -132 -234 -29 0 -29 8 -2 147 34 178 47 211 107 269
30 29 49 55 43 58 -14 9 -78 -49 -102 -93 l-20 -36 5 55 c2 30 11 69 20 85 9
17 16 35 16 42 0 6 9 18 19 25 15 11 19 26 20 78 0 36 12 115 27 175 24 96 28
130 28 265 0 172 -12 238 -65 341 -37 74 -140 185 -179 194 -26 6 -30 12 -35
53 -17 134 -53 211 -128 277 -55 48 -153 99 -219 115 -56 12 -188 12 -210 -1z
m377 -651 c54 -18 73 -30 86 -53 38 -65 171 -566 156 -582 -4 -3 -62 2 -131
12 -94 13 -162 16 -282 12 -150 -5 -179 -8 -264 -21 -78 -12 -198 -8 -256 9
-32 9 -67 19 -77 20 -9 2 -21 6 -25 9 -5 3 -22 8 -38 11 -42 9 -59 13 -59 16
0 1 -9 3 -20 5 -11 2 -27 5 -35 7 -8 2 -31 7 -50 10 -19 4 -48 10 -65 13 -16
3 -99 8 -182 11 l-153 6 0 96 c0 176 64 361 135 395 34 17 121 21 142 8 6 -4
64 -58 129 -120 64 -62 135 -122 158 -134 53 -27 188 -29 263 -4 58 19 117 76
127 123 9 39 74 123 114 146 19 11 48 24 65 28 54 14 187 2 262 -23z m-991
-633 c124 -19 205 -46 244 -82 15 -14 20 -20 11 -14 -10 7 -37 9 -71 5 -48 -5
-62 -3 -99 19 -45 26 -141 49 -175 42 -11 -2 -48 -6 -84 -9 -73 -5 -164 -36
-206 -69 -16 -12 -24 -15 -19 -7 7 12 6 13 -7 3 -24 -20 -28 -5 -12 50 25 85
37 91 184 84 69 -3 174 -13 234 -22z m1127 -85 c50 -14 59 -28 71 -107 16
-101 15 -100 44 -72 l26 24 -7 -50 c-3 -27 -8 -61 -11 -75 l-6 -25 -12 30 -13
30 -11 -53 c-16 -70 -16 -72 10 -99 l22 -23 -28 -111 c-69 -284 -173 -351
-346 -224 -86 63 -108 68 -300 73 -152 4 -170 6 -140 17 38 13 80 65 80 98 0
17 -6 13 -33 -18 -31 -35 -38 -39 -95 -43 -70 -5 -141 22 -160 61 -11 22 -11
22 -11 -3 -1 -34 25 -69 63 -86 43 -18 17 -17 -127 5 -169 26 -216 22 -324
-28 -95 -44 -134 -49 -186 -27 -67 28 -109 103 -132 238 -26 146 -20 203 28
255 11 12 17 29 13 38 -3 8 -2 37 2 63 l7 47 5 -59 c3 -33 10 -61 15 -63 6 -2
19 17 30 43 21 50 58 96 93 114 31 16 36 8 14 -21 -20 -27 -44 -79 -36 -79 3
0 16 11 30 24 15 13 43 33 63 44 l37 21 -4 -62 c-3 -45 0 -66 9 -73 19 -15
175 -37 201 -28 13 4 24 1 29 -7 15 -22 45 22 54 76 5 36 2 55 -13 86 -11 21
-16 39 -12 39 21 0 75 -59 96 -105 l24 -50 -3 39 c-2 38 -1 39 33 43 19 2 40
11 47 19 10 14 13 13 22 -5 12 -22 30 -21 76 3 36 19 59 13 99 -25 18 -17 33
-24 37 -18 3 6 9 1 12 -10 4 -16 13 -21 36 -21 25 0 31 -4 31 -22 0 -17 7 -11
30 25 16 26 31 47 34 47 2 0 20 7 39 15 l36 15 -24 -36 c-27 -40 -32 -91 -14
-143 l11 -32 128 2 c147 3 147 3 152 93 l3 49 54 -51 c30 -29 57 -50 59 -47 2
2 -3 19 -13 37 -45 88 -21 89 62 2 56 -58 63 -62 63 -40 0 13 -15 44 -33 68
-45 59 -135 103 -263 129 -98 20 -104 20 -160 4 -33 -10 -77 -18 -99 -17 -51
0 -125 5 -125 9 0 6 62 34 97 43 49 12 467 5 514 -10z m-710 0 c10 -6 19 -17
19 -25 0 -13 -26 -13 -74 2 -19 5 -19 6 -1 19 23 17 30 17 56 4z m-502 -34
c14 -16 5 -42 -16 -50 -29 -11 -58 35 -36 57 11 12 40 8 52 -7z m881 -79 c0
-24 -18 -39 -41 -35 -29 4 -38 37 -14 54 20 15 55 2 55 -19z m-1374 -364 c8
-52 -3 -68 -40 -59 -23 6 -26 12 -26 48 0 27 6 45 17 53 27 20 41 7 49 -42z
m780 -263 c89 -11 227 -20 314 -21 85 0 166 -5 180 -9 14 -5 -64 -8 -185 -9
-202 -1 -398 17 -531 48 l-39 9 51 1 c27 1 122 -8 210 -19z m-252 -69 c55
-108 202 -225 311 -246 l30 -6 -25 16 -25 16 30 -8 c17 -4 52 -7 79 -6 57 2
55 -4 -5 -17 -38 -8 -32 -9 38 -6 142 7 272 84 353 209 l39 59 15 -31 c46 -87
-4 -210 -120 -298 -84 -65 -148 -89 -190 -72 -30 11 -117 18 -284 22 -90 2
-99 4 -148 36 -78 49 -144 127 -165 193 -24 76 -22 148 4 182 11 14 22 26 25
26 2 0 19 -31 38 -69z m281 3 c55 -7 138 -14 185 -15 86 -2 120 -10 120 -31 0
-29 -425 13 -455 44 -7 8 -6 9 3 4 6 -4 12 -3 12 2 0 12 20 12 135 -4z"/>
<path d="M1601 2628 c-79 -27 -151 -90 -151 -132 0 -41 24 -42 103 -5 95 44
177 50 262 19 87 -32 97 -31 118 12 15 30 16 41 7 58 -33 62 -222 89 -339 48z"/>
<path d="M2509 2584 c-26 -7 -52 -21 -59 -29 -18 -22 -17 -73 3 -92 15 -15 21
-14 82 5 119 40 210 23 309 -57 47 -38 64 -39 72 -6 14 56 -44 126 -140 171
-42 19 -67 24 -136 23 -47 0 -106 -7 -131 -15z"/>
<path d="M2280 1120 c-19 -11 -31 -19 -27 -20 11 0 67 29 67 35 0 7 -1 7 -40
-15z"/>
</g>
</svg>
